<svg width="105" height="112" viewBox="0 0 105 112" fill="none" xmlns="http://www.w3.org/2000/svg">
<path d="M75.6738 0.350025C77.54 0.875025 78.9756 1.7719 80.3906 3.28127C84.4717 7.6344 84.4717 14.2406 80.3906 18.5938C79.0166 20.0594 77.4375 21 75.4482 21.525C73.7666 21.9625 72.6592 21.9625 70.9775 21.525C67.1016 20.4969 64.2305 17.4344 63.2871 13.3219C62.877 11.5063 62.877 10.3469 63.2871 8.55315C63.7793 6.43127 64.6611 4.7469 66.0352 3.28127C68.5986 0.5469 72.3516 -0.590601 75.6738 0.350025Z" fill="#0029FF"/>
<path d="M76.3711 24.0844C77.7246 24.3031 79.4062 25.0469 80.5342 25.9656C81.6826 26.9062 82.9951 28.9625 83.4668 30.5594C83.877 31.9594 83.877 32.5281 83.877 69.7594C83.877 107.253 83.8564 107.516 83.4463 108.5C82.5234 110.709 80.8623 111.869 78.6475 111.891C77.4375 111.891 77.0479 111.781 76.125 111.234C74.9766 110.578 74.0742 109.419 73.6641 108.084C73.4795 107.537 73.418 102.616 73.418 90.2125V73.0625H71.6748H69.9316V90.4969C69.9521 109.069 69.9111 108.237 70.834 110.512C71.1006 111.169 69.501 111.869 67.7783 111.869C65.543 111.869 64.0049 110.819 63.041 108.609L62.5488 107.516V80.5875V53.6375L64.333 53.2875C65.3379 53.1125 66.7529 52.85 67.5117 52.6969C68.3525 52.5656 69.2344 52.2156 69.8086 51.8437C71.3057 50.8156 71.6543 49.9187 72.8027 44.0562C73.3564 41.1687 73.8691 38.6531 73.9102 38.4344C74.0742 37.6687 73.8076 38.2156 71.4902 43.225C69.0703 48.475 68.4756 49.35 67.0195 49.8531C66.2812 50.0937 49.916 53.1562 49.3008 53.1562C48.46 53.1562 47.332 52.675 46.6348 52.0187C44.584 50.0937 44.584 46.8125 46.6143 44.9094C47.5166 44.0781 47.8652 43.9906 55.7812 42.525C59.4521 41.8687 62.5078 41.2344 62.5898 41.1687C62.7744 40.9719 66.0557 33.9062 65.9531 33.9062C65.9121 33.9062 65.1328 34.8469 64.21 36.0062L62.5488 38.1062V35.3719C62.5488 33.8844 62.6514 32.1125 62.7539 31.4781C63.2256 28.7875 65.1943 26.0969 67.5527 24.9156C69.501 23.9531 73.2129 23.6031 76.3711 24.0844Z" fill="#0029FF"/>
<path d="M57.627 26.9281C58.0371 27.1688 58.5908 27.7375 58.8574 28.1531C59.3701 28.9406 59.3701 28.9844 59.3701 33.9937V39.025L54.9609 39.8344C46.2656 41.4531 45.876 41.5844 44.1943 43.5969C41.2002 47.1406 42.2256 52.9594 46.2246 55.0813C48.2344 56.1531 48.9932 56.1531 55.5762 54.9062C57.4834 54.5563 59.1445 54.25 59.2676 54.25C59.3906 54.25 59.4727 54.9281 59.4727 55.9344C59.4521 58.4938 58.8164 59.7406 57.1553 60.4844C56.499 60.7688 54.3252 60.8125 40.1953 60.8125C26.8857 60.8125 23.8711 60.7688 23.3174 60.5062C22.5176 60.1562 21.6357 59.1719 21.3486 58.3406C21.2051 57.925 21.123 53.025 21.123 43.5094C21.123 29.7719 21.1436 29.2688 21.5332 28.4375C21.7588 27.9781 22.2305 27.3656 22.5996 27.0812L23.2764 26.5781L40.0928 26.5344C56.7451 26.4688 56.9092 26.4688 57.627 26.9281Z" fill="#0029FF"/>
</svg>
