<svg width="166" height="166" viewBox="0 0 166 166" fill="none" xmlns="http://www.w3.org/2000/svg">
<path d="M66.6221 10.5651C63.2588 15.8067 62.4678 21.5601 62.3511 25.3541C60.5988 26.7735 59.5248 28.6552 59.3581 31.0209C59.3501 33.4564 60.6591 35.2093 62.288 36.3688C59.0515 37.4082 56.6787 40.4701 56.6787 44.0325C56.6787 48.4354 60.3003 52.0569 64.7032 52.0569C65.0815 52.0569 65.4266 52.0328 65.733 52.0167C66.6991 55.6497 68.4496 59.6799 71.6769 63.0211C72.7369 64.1184 73.9613 65.1267 75.3467 66.006L73.5432 74.208L72.1526 73.5133C71.1191 72.9891 69.8659 73.1893 69.0474 74.0102L63.757 79.3008L47.1592 81.3971C40.219 82.8963 36.3002 88.0999 34.4926 93.4886C32.685 98.8774 32.5949 104.658 32.5949 108.628V115.084H27.1634C23.792 115.084 21 117.876 21 121.248V159.76C21 163.131 23.792 165.944 27.1634 165.944H65.6703C69.0417 165.944 71.8337 163.131 71.8337 159.76V155.232H78.0808V159.76C78.0808 163.13 80.8941 165.944 84.2651 165.944H109.394C112.765 165.944 115.558 163.13 115.558 159.76V155.232H142.334C143.812 155.227 145.006 154.024 145 152.545V124.588V108.623C145 104.653 144.91 98.8774 143.102 93.4886C141.295 88.0999 137.36 82.8963 130.42 81.3971L113.822 79.3008L108.527 74.0105C107.712 73.2002 106.47 72.9999 105.442 73.5136L104.052 74.2083L102.222 65.9642C103.58 65.0953 104.776 64.1006 105.819 63.0211C109.048 59.6781 110.806 55.6507 111.773 52.0169C112.075 52.041 112.416 52.0572 112.792 52.0572C117.195 52.0572 120.838 48.4406 120.838 44.0377C120.838 40.5003 118.487 37.4551 115.281 36.3948C116.917 35.2354 118.229 33.4736 118.229 31.1855C118.162 28.8924 117.061 26.79 115.244 25.2967C115.121 21.5022 114.323 15.783 110.978 10.5703C107.276 4.79978 100.201 0 88.7872 0C77.3731 0 70.3248 4.79463 66.6221 10.5651ZM88.7874 5.34797C98.7855 5.34797 103.633 9.0195 106.473 13.4455C108.416 16.4741 109.307 19.9993 109.677 22.9128C108.724 22.752 107.706 22.6677 106.629 22.6725H70.9454C69.8796 22.6693 68.8678 22.7632 67.9133 22.9393C68.2818 20.0207 69.174 16.4836 71.1231 13.446C73.9631 9.01999 78.7893 5.34797 88.7874 5.34797ZM88.7874 28.01H106.64C109.137 28.0019 110.77 28.6209 111.69 29.2958C113.442 31.0472 112.391 31.922 111.669 32.3386C110.449 32.9449 108.3 33.4873 105.762 33.8386C100.686 34.5414 94.054 34.573 88.7878 34.5714C83.5217 34.5736 76.9103 34.539 71.8346 33.8386C69.2967 33.4873 67.148 32.9446 65.9273 32.3386C64.1132 30.9921 64.989 29.8187 66.0352 29.1505C66.9772 28.4992 68.516 28.0014 70.946 28.01H88.7874ZM101.966 59.3076C99.2295 62.1409 95.2704 64.2271 88.7506 64.2271C82.2308 64.2271 78.2664 62.1407 75.5298 59.3076C72.8707 56.5548 71.3963 52.916 70.6524 49.6261C70.6187 49.4943 70.5751 49.3648 70.5218 49.2394L70.5689 49.2072C70.3551 48.4088 69.6717 47.4324 68.8543 46.9961C68.0369 46.5602 67.3507 46.5593 66.8573 46.5617C65.8706 46.5682 65.2733 46.6977 64.7035 46.6977C63.1935 46.6977 62.0374 45.5414 62.0374 44.0315C62.0374 42.5327 63.1889 41.3825 64.6826 41.3654C64.7838 41.3721 64.879 41.3735 65.0015 41.4056C66.4479 41.7305 67.8816 40.8139 68.2008 39.367L68.2637 38.661C69.176 38.8532 70.1267 39.0164 71.1076 39.1523C76.7811 39.9387 83.5194 39.9232 88.7875 39.9208C94.0557 39.9231 100.82 39.929 106.494 39.1523C107.442 39.0204 108.359 38.8652 109.243 38.6819C109.235 38.8941 109.251 39.1128 109.296 39.3299C109.597 40.7748 111.013 41.6985 112.458 41.4C112.584 41.3678 112.703 41.3678 112.814 41.3598C114.308 41.3839 115.48 42.5271 115.48 44.0259C115.48 45.5357 114.303 46.692 112.793 46.692C112.223 46.692 111.626 46.5633 110.639 46.5561C110.146 46.5529 109.481 46.5803 108.663 47.0113C107.846 47.4471 107.162 48.4033 106.907 49.3795C106.125 52.8609 104.64 56.5393 101.966 59.3076ZM97.2614 68.2993L99.1068 76.6742L88.7978 81.8285L78.4732 76.6688L80.3238 68.3254C82.7921 69.1238 85.6005 69.5803 88.7508 69.5803C91.9389 69.5802 94.7716 69.1145 97.2614 68.2993ZM71.4786 79.1624L84.7203 85.7807L79.5815 92.6393L68.7916 81.8494L71.4786 79.1624ZM106.117 79.1624L108.804 81.8494L98.0142 92.6393L92.8806 85.7807L106.117 79.1624ZM113.561 84.662L129.312 86.6536C134.255 87.7335 136.581 90.8974 138.027 95.2061C139.475 99.5245 139.647 104.778 139.647 108.62V121.919H127.158V108.62C127.164 107.142 125.971 105.938 124.492 105.933C123.006 105.927 121.799 107.134 121.805 108.62V149.877H115.558V129.269C115.558 125.898 112.766 123.106 109.395 123.106H104.381C103.268 120.003 100.291 117.753 96.8275 117.753C93.3642 117.753 90.3765 120.002 89.2579 123.106H84.2655C80.8945 123.106 78.0811 125.898 78.0811 129.269V149.877H71.8341V121.245C71.8341 117.874 69.042 115.082 65.6707 115.082H55.7904V108.62C55.7958 107.134 54.5898 105.928 53.1034 105.933C51.6247 105.938 50.4315 107.142 50.4373 108.62V115.082H37.9327V108.626C37.9327 104.783 38.1204 99.5245 39.569 95.2061C41.0143 90.8974 43.3403 87.7335 48.2835 86.6536L64.024 84.6672L77.9818 98.6042C79.1305 99.7554 81.0319 99.6246 82.0123 98.3266L88.7978 89.288L95.5833 98.3266C96.5638 99.6242 98.4651 99.7551 99.6138 98.6042L113.561 84.662ZM106.629 110.026C105.159 110.032 103.969 111.222 103.963 112.693C103.958 114.171 105.151 115.374 106.629 115.38H109.614C111.093 115.374 112.286 114.171 112.28 112.693C112.275 111.222 111.084 110.032 109.614 110.026H106.629ZM27.1638 120.44H37.044V128.459C37.0494 129.938 38.2524 131.131 39.731 131.125H53.1034C54.5821 131.131 55.7852 129.938 55.7904 128.459V120.44H65.6707C66.169 120.44 66.481 120.751 66.481 121.25V159.757C66.481 160.256 66.169 160.589 65.6707 160.589H55.7904V152.543C55.785 150.713 53.99 149.425 52.2565 150.013L45.2828 152.329L40.9125 150.154C39.1344 149.266 37.0471 150.556 37.044 152.543V160.589H27.1638C26.6654 160.589 26.3326 160.255 26.3326 159.757V121.25C26.3326 120.752 26.6654 120.44 27.1638 120.44ZM42.3972 120.44H50.4373V125.793H42.3972V120.44ZM99.4989 125.793C99.5042 127.271 100.708 128.465 102.186 128.459H109.395C109.894 128.459 110.205 128.77 110.205 129.269V159.757C110.205 160.256 109.894 160.589 109.395 160.589H84.2655C83.7668 160.589 83.4342 160.256 83.4342 159.757V129.269C83.4342 128.771 83.7666 128.459 84.2655 128.459H91.4744C92.9445 128.454 94.1348 127.263 94.1405 125.793C94.1405 124.33 95.2499 123.177 96.7596 123.106C98.3374 123.106 99.4989 124.283 99.4989 125.793ZM127.158 127.273H139.647V149.877H127.158V127.273ZM88.7874 133.812C87.3153 133.818 86.1241 135.012 86.1213 136.484C86.1159 137.962 87.3091 139.165 88.7874 139.171H104.852C106.338 139.177 107.545 137.97 107.539 136.484C107.536 135.003 106.332 133.807 104.852 133.812H88.7874ZM88.7874 143.18C87.3091 143.186 86.1155 144.389 86.1213 145.867C86.1266 147.337 87.3173 148.528 88.7874 148.534H104.852C106.33 148.539 107.533 147.346 107.539 145.867C107.544 144.381 106.338 143.175 104.852 143.18H88.7874ZM88.7986 152.543C87.3122 152.537 86.1058 153.744 86.1116 155.23C86.1143 156.71 87.3184 157.907 88.7986 157.901C90.2707 157.896 91.4619 156.702 91.4647 155.23C91.4701 153.752 90.2769 152.549 88.7986 152.543ZM96.8388 152.543C95.3524 152.537 94.1459 153.744 94.1517 155.23C94.1544 156.71 95.3585 157.907 96.8388 157.901C98.3109 157.896 99.502 156.702 99.5049 155.23C99.5102 153.752 98.317 152.549 96.8388 152.543ZM50.4381 156.26V160.588H42.3974V156.872L43.8768 157.624C44.5158 157.943 45.2553 157.989 45.9313 157.76L50.4381 156.26Z" fill="white"/>
</svg>
