<svg width="166" height="166" viewBox="0 0 166 166" fill="none" xmlns="http://www.w3.org/2000/svg">
<path d="M28.8878 39.652C28.6933 39.9113 28.4988 42.2457 28.4663 45.7473L28.3691 51.3887L18.9992 51.486C12.5148 51.5184 9.46713 51.6805 9.17533 51.9399C8.46205 52.5235 8.78627 54.2418 9.7265 54.6957C10.7316 55.2145 43.5425 55.3117 44.9042 54.793C45.9417 54.4039 46.2335 53.6906 45.8445 52.5559L45.5527 51.7129L38.7441 51.5508L31.9355 51.3887V47.0117V42.6348L69.8042 42.5375L107.641 42.4727V74.8946V107.316H88.4144H69.2206L68.4425 105.857C67.405 103.912 64.2601 100.962 62.1851 100.022C59.6238 98.8543 56.5113 98.4328 54.0472 98.8543C49.7675 99.6 45.5203 102.55 43.737 106.084L43.121 107.316H37.4472H31.7734L31.8382 99.6L31.9355 91.916L37.9011 91.8188C41.6296 91.7864 44.0288 91.5918 44.3206 91.3973C44.9367 90.8785 44.8394 89.3547 44.1585 88.7387C43.6074 88.2524 42.1484 88.1875 29.7956 88.1875C22.2413 88.1875 15.8867 88.3172 15.6921 88.4469C14.914 88.9656 14.6222 90.0031 15.0113 90.8137L15.4328 91.5918L21.982 91.6891L28.5312 91.7539V99.5028V107.252L27.4937 107.479C24.6406 108.095 22.8249 110.461 23.0843 113.217C23.2788 115 23.9921 116.2 25.6132 117.302C26.6507 117.983 26.9101 118.016 34.821 118.016H42.9589L43.7695 119.539C44.9691 121.809 47.6277 124.273 50.1566 125.538C52.264 126.575 52.5234 126.607 56.0898 126.607C59.5913 126.607 59.948 126.543 61.9906 125.57C64.6167 124.338 66.7566 122.425 68.3128 119.896L69.48 118.016H93.0507H116.654L117.627 119.702C118.923 122.036 121.485 124.338 124.111 125.57C125.862 126.38 126.802 126.607 129.104 126.705C134.875 126.997 139.673 124.37 142.17 119.539L142.98 118.016H148.2C154.166 118.016 155.139 117.756 156.468 115.746C157.052 114.871 157.278 114.06 157.311 112.893C157.311 110.234 155.884 108.322 153.355 107.641L152.123 107.316L151.961 95.5473C151.799 83.3242 151.702 82.1895 150.178 77.8125C147.163 69.1883 139.609 61.634 130.984 58.6188C127.223 57.3219 125.051 57.0301 118.113 56.8356L111.207 56.6735V48.341C111.207 42.2781 111.11 39.9113 110.818 39.6196C110.202 39.0035 29.4066 39.0684 28.8878 39.652ZM125.31 60.791C136.82 62.8012 145.996 71.9766 148.006 83.4864C148.362 85.6262 148.492 88.8684 148.492 96.8117V107.316H145.801H143.11L141.748 105.209C140.127 102.777 138.312 101.189 135.783 100.022C131.73 98.1735 127.612 98.2383 123.592 100.216C121.225 101.383 118.405 104.042 117.529 105.987L116.946 107.316H114.06H111.207V83.8106V60.3047H116.848C120.415 60.3047 123.495 60.4992 125.31 60.791ZM60.4343 103.069C62.4769 103.977 64.6816 106.117 65.7191 108.257C66.4972 109.813 66.6269 110.461 66.6269 112.828C66.5945 115.163 66.4648 115.843 65.7191 117.27C63.9683 120.674 61.5367 122.522 57.9378 123.171C54.339 123.819 50.9671 122.62 48.341 119.766C46.4605 117.691 45.6824 115.649 45.6824 112.731C45.6824 107.932 48.5031 104.139 53.2691 102.583C55.0523 101.999 58.5538 102.226 60.4343 103.069ZM134.259 103.166C136.366 104.139 138.214 105.922 139.349 108.127C140.127 109.554 140.225 110.137 140.225 112.828C140.225 115.422 140.095 116.135 139.479 117.302C137.436 121.161 133.967 123.268 129.785 123.268C127.742 123.268 127.061 123.106 125.31 122.263C122.782 120.998 120.901 118.956 119.928 116.427C118.988 113.93 119.183 110.461 120.35 108.127C121.193 106.473 123.365 104.204 124.857 103.393C127.645 101.902 131.341 101.837 134.259 103.166ZM42.1484 112.828V114.773H35.2749C30.3792 114.773 28.1421 114.644 27.5585 114.352C26.5535 113.833 26.2941 112.374 27.1046 111.499C27.6234 110.915 28.1745 110.883 34.9183 110.883H42.1484V112.828ZM115.746 112.828V114.773H93.0507H70.3554V112.828V110.883H93.0507H115.746V112.828ZM153.096 111.272C154.069 112.05 154.101 113.088 153.226 113.963C152.448 114.741 152.285 114.773 148.168 114.773H143.953V112.828V110.883H148.265C151.216 110.883 152.739 111.013 153.096 111.272Z" fill="#0029FF"/>
<path d="M116.135 65.2328C115.584 65.784 115.584 89.1926 116.135 89.7437C116.427 90.0355 119.896 90.1328 129.72 90.1328C141.294 90.1328 143.013 90.068 143.434 89.6141C144.148 88.9008 144.115 85.6262 143.305 82.5461C141.132 74.0516 134.291 67.3402 125.732 65.3301C123.203 64.7465 116.686 64.6816 116.135 65.2328ZM124.986 68.7992C130.336 69.9016 135.88 74.2785 138.376 79.4336C139.576 81.8977 140.743 86.0152 140.354 86.3719C140.289 86.4367 135.523 86.5664 129.785 86.6312L119.312 86.7934V77.4234V68.0859L121.355 68.2805C122.457 68.3777 124.111 68.6047 124.986 68.7992Z" fill="#0029FF"/>
<path d="M53.5934 107.608C50.0594 109.262 49.3461 113.801 52.1344 116.751C54.9226 119.669 59.4617 118.988 61.2773 115.389C63.7738 110.526 58.6187 105.274 53.5934 107.608ZM57.7109 111.207C59.0402 112.536 58.0351 115.098 56.1871 115.098C55.2469 115.098 53.8203 113.736 53.8203 112.893C53.8203 110.98 56.3816 109.878 57.7109 111.207Z" fill="#0029FF"/>
<path d="M127.742 107.349C126.705 107.77 125.213 109.164 124.63 110.299C124.046 111.402 124.046 113.833 124.63 115.195C125.505 117.367 128.455 118.956 130.757 118.534C132.216 118.275 133.87 117.14 134.778 115.779C135.848 114.222 135.815 111.596 134.713 109.716C133.383 107.479 130.174 106.376 127.742 107.349ZM131.73 111.564C132.93 113.217 131.276 115.487 129.233 114.968C128.293 114.741 127.353 113.088 127.677 112.212C128.326 110.364 130.563 110.007 131.73 111.564Z" fill="#0029FF"/>
<path d="M50.9347 52.0047C50.7078 52.2641 50.5781 52.8801 50.6429 53.3988C50.805 54.8578 51.7777 55.1172 57.2246 55.1172C62.6714 55.1172 63.6441 54.8578 63.8062 53.3988C64.0007 51.648 63.6765 51.5508 57.2246 51.5508C52.4585 51.5508 51.2265 51.648 50.9347 52.0047Z" fill="#0029FF"/>
<path d="M15.9515 64.2602C15.4652 64.7465 15.4652 65.6543 15.8867 66.4973C16.2109 67.0809 16.6324 67.1133 23.1168 67.1133C28.0449 67.1133 30.1199 67.016 30.4117 66.7242C30.898 66.2379 30.898 64.7465 30.4117 64.2602C29.8605 63.709 16.5027 63.709 15.9515 64.2602Z" fill="#0029FF"/>
<path d="M35.7289 64.2602C35.2426 64.7465 35.2426 66.2379 35.7289 66.7242C36.0207 67.016 40.3004 67.1133 53.0097 67.1133C68.9937 67.1133 69.9664 67.0809 70.4527 66.5297C71.1336 65.784 71.166 65.0383 70.4851 64.3898C70.0312 63.9359 68.0211 63.8711 53.0422 63.8711C40.3004 63.8711 36.0207 63.9684 35.7289 64.2602Z" fill="#0029FF"/>
<path d="M9.46713 76.3859C8.689 76.9371 8.49447 78.3961 9.14291 79.0445C9.40228 79.3039 11.1206 79.4336 14.7519 79.4336C19.5503 79.4336 20.0367 79.3687 20.5878 78.7852C21.3335 77.9422 21.0093 76.5805 19.907 76.1914C19.4531 75.9969 17.0863 75.8672 14.6546 75.8672C11.1531 75.8672 10.0507 75.9645 9.46713 76.3859Z" fill="#0029FF"/>
<path d="M26.359 76.1914C25.3863 76.5805 25.1269 77.6828 25.743 78.623L26.2617 79.4336H44.6773C58.5539 79.4336 63.1902 79.3363 63.482 79.0445C64.1305 78.3961 63.9359 76.9371 63.1578 76.3859C62.5094 75.932 60.2398 75.8672 44.7422 75.8996C35.0156 75.8996 26.748 76.0293 26.359 76.1914Z" fill="#0029FF"/>
<path d="M49.9944 88.7062C49.1515 89.2898 49.0542 90.5219 49.7999 91.2352C50.2214 91.6891 51.5831 91.7539 59.6561 91.7539C69.8042 91.7539 70.0311 91.7215 70.0311 89.9707C70.0311 88.3172 69.3503 88.1875 59.6561 88.1875C52.1018 88.1875 50.6104 88.2523 49.9944 88.7062Z" fill="#0029FF"/>
</svg>
