<svg width="230" height="166" viewBox="0 0 230 166" fill="none" xmlns="http://www.w3.org/2000/svg">
<path d="M31.2325 31.0765C30.9385 31.4676 30.6445 34.9884 30.5956 40.2695L30.4486 48.7779L16.2899 48.9246C6.49153 48.9735 1.88629 49.218 1.44536 49.6092C0.367536 50.4894 0.857455 53.0811 2.27822 53.7657C3.79697 54.548 53.3768 54.6947 55.4345 53.9124C57.0022 53.3256 57.4431 52.2498 56.8552 50.5383L56.4143 49.2669L46.126 49.0224L35.8377 48.7779V42.1766V35.5752L93.0603 35.4285L150.234 35.3307V84.2298V133.129H121.182H92.1784L91.0026 130.929C89.4349 127.995 84.6827 123.545 81.5472 122.127C77.6768 120.366 72.9736 119.731 69.2502 120.366C62.7833 121.491 56.3653 125.941 53.6708 131.271L52.7399 133.129H44.1663H35.5927L35.6907 121.491L35.8377 109.902L44.8522 109.755C50.4863 109.706 54.1117 109.413 54.5526 109.119C55.4835 108.337 55.3365 106.039 54.3077 105.11C53.4748 104.376 51.2702 104.278 32.6042 104.278C21.1891 104.278 11.5867 104.474 11.2927 104.67C10.1169 105.452 9.676 107.017 10.2639 108.239L10.9008 109.413L20.7972 109.56L30.6935 109.657V121.344V133.031L29.1258 133.373C24.8145 134.303 22.071 137.872 22.4629 142.029C22.7568 144.718 23.8347 146.527 26.2843 148.19C27.852 149.217 28.2439 149.266 40.198 149.266H52.495L53.7198 151.564C55.5325 154.987 59.5498 158.703 63.3712 160.61C66.5556 162.175 66.9476 162.224 72.3367 162.224C77.6278 162.224 78.1667 162.126 81.2532 160.659C85.2216 158.801 88.455 155.916 90.8066 152.102L92.5704 149.266H128.187H163.854L165.323 151.808C167.283 155.329 171.153 158.801 175.122 160.659C177.767 161.882 179.188 162.224 182.667 162.371C191.387 162.811 198.638 158.85 202.41 151.564L203.635 149.266H211.523C220.537 149.266 222.007 148.875 224.016 145.843C224.898 144.522 225.241 143.3 225.29 141.54C225.29 137.53 223.134 134.645 219.312 133.618L217.451 133.129L217.206 115.379C216.961 96.9436 216.814 95.2321 214.511 88.6308C209.955 75.6236 198.54 64.2301 185.508 59.6825C179.825 57.7265 176.543 57.2864 166.058 56.993L155.623 56.7485V44.1814C155.623 35.0373 155.476 31.4676 155.035 31.0276C154.104 30.0985 32.0163 30.1963 31.2325 31.0765ZM176.934 62.9587C194.327 65.9904 208.191 79.8289 211.229 97.1881C211.768 100.415 211.964 105.305 211.964 117.286V133.129H207.897H203.831L201.773 129.951C199.324 126.283 196.58 123.887 192.759 122.127C186.635 119.339 180.413 119.437 174.338 122.42C170.761 124.18 166.499 128.19 165.176 131.124L164.295 133.129H159.934H155.623V97.6771V62.2252H164.148C169.537 62.2252 174.191 62.5186 176.934 62.9587ZM78.9016 126.723C81.9881 128.092 85.3196 131.32 86.8873 134.547C88.0631 136.894 88.2591 137.872 88.2591 141.442C88.2101 144.963 88.0141 145.989 86.8873 148.141C84.2417 153.275 80.5673 156.063 75.1292 157.041C69.6911 158.019 64.596 156.209 60.6276 151.906C57.7861 148.777 56.6103 145.696 56.6103 141.295C56.6103 134.058 60.8726 128.337 68.0744 125.99C70.7689 125.11 76.0601 125.452 78.9016 126.723ZM190.456 126.87C193.641 128.337 196.433 131.026 198.148 134.351C199.324 136.503 199.471 137.383 199.471 141.442C199.471 145.354 199.275 146.43 198.344 148.19C195.257 154.009 190.015 157.187 183.695 157.187C180.609 157.187 179.58 156.943 176.934 155.671C173.113 153.764 170.272 150.684 168.802 146.87C167.381 143.104 167.675 137.872 169.439 134.351C170.712 131.858 173.995 128.435 176.249 127.212C180.462 124.963 186.047 124.865 190.456 126.87ZM51.2702 141.442V144.376H40.8839C33.4861 144.376 30.1056 144.18 29.2238 143.74C27.705 142.958 27.3131 140.757 28.5379 139.437C29.3218 138.557 30.1546 138.508 40.345 138.508H51.2702V141.442ZM162.482 141.442V144.376H128.187H93.8931V141.442V138.508H128.187H162.482V141.442ZM218.921 139.095C220.39 140.268 220.439 141.833 219.117 143.153C217.941 144.327 217.696 144.376 211.474 144.376H205.105V141.442V138.508H211.621C216.079 138.508 218.382 138.703 218.921 139.095Z" fill="white"/>
<path d="M163.07 69.6579C162.237 70.4891 162.237 105.794 163.07 106.626C163.511 107.066 168.753 107.212 183.597 107.212C201.087 107.212 203.684 107.115 204.321 106.43C205.399 105.354 205.35 100.415 204.125 95.77C200.843 82.9584 190.505 72.8363 177.571 69.8046C173.75 68.9244 163.903 68.8266 163.07 69.6579ZM176.445 75.0368C184.528 76.6993 192.906 83.3007 196.678 91.0757C198.491 94.792 200.255 101.002 199.667 101.54C199.569 101.638 192.367 101.833 183.695 101.931L167.871 102.176V88.0439V73.961L170.957 74.2544C172.623 74.4011 175.122 74.7434 176.445 75.0368Z" fill="white"/>
<path d="M68.5643 133.569C63.2242 136.063 62.1464 142.909 66.3597 147.359C70.573 151.76 77.4319 150.733 80.1754 145.305C83.9478 137.97 76.1581 130.048 68.5643 133.569ZM74.7863 138.997C76.795 141.002 75.2762 144.865 72.4837 144.865C71.0629 144.865 68.9073 142.811 68.9073 141.54C68.9073 138.655 72.7776 136.992 74.7863 138.997Z" fill="white"/>
<path d="M180.609 133.178C179.041 133.814 176.788 135.916 175.906 137.628C175.024 139.29 175.024 142.958 175.906 145.012C177.228 148.288 181.687 150.684 185.165 150.048C187.37 149.657 189.868 147.945 191.24 145.892C192.857 143.545 192.808 139.584 191.142 136.748C189.133 133.374 184.283 131.711 180.609 133.178ZM186.635 139.535C188.448 142.029 185.949 145.452 182.863 144.669C181.442 144.327 180.021 141.833 180.511 140.513C181.491 137.726 184.871 137.188 186.635 139.535Z" fill="white"/>
<path d="M64.547 49.707C64.204 50.0982 64.0081 51.0273 64.106 51.8097C64.351 54.0102 65.8208 54.4014 74.0514 54.4014C82.2821 54.4014 83.7518 54.0102 83.9968 51.8097C84.2907 49.1692 83.8008 49.0225 74.0514 49.0225C66.8496 49.0225 64.9879 49.1692 64.547 49.707Z" fill="white"/>
<path d="M11.6847 68.1909C10.9498 68.9244 10.9498 70.2936 11.5867 71.5649C12.0766 72.4451 12.7135 72.494 22.5119 72.494C29.9587 72.494 33.0941 72.3473 33.5351 71.9072C34.27 71.1737 34.27 68.9244 33.5351 68.1909C32.7022 67.3596 12.5175 67.3596 11.6847 68.1909Z" fill="white"/>
<path d="M41.5698 68.1909C40.8349 68.9244 40.8349 71.1737 41.5698 71.9072C42.0107 72.3473 48.4776 72.494 67.6825 72.494C91.8355 72.494 93.3052 72.4451 94.0401 71.6138C95.069 70.4892 95.1179 69.3645 94.0891 68.3865C93.4032 67.7019 90.3657 67.6041 67.7314 67.6041C48.4776 67.6041 42.0107 67.7508 41.5698 68.1909Z" fill="white"/>
<path d="M1.88629 86.4792C0.710482 87.3104 0.41653 89.5109 1.39637 90.4889C1.7883 90.8801 4.38488 91.0757 9.87197 91.0757C17.1228 91.0757 17.8577 90.9779 18.6905 90.0977C19.8173 88.8263 19.3274 86.7726 17.6617 86.1858C16.9758 85.8924 13.3994 85.6968 9.725 85.6968C4.43387 85.6968 2.76814 85.8435 1.88629 86.4792Z" fill="white"/>
<path d="M27.4111 86.1858C25.9413 86.7726 25.5494 88.4351 26.4802 89.8532L27.2641 91.0757H55.0915C76.0601 91.0757 83.0659 90.929 83.5069 90.4889C84.4867 89.5109 84.1927 87.3104 83.0169 86.4792C82.0371 85.7946 78.6077 85.6968 55.1895 85.7457C40.4919 85.7457 27.999 85.9413 27.4111 86.1858Z" fill="white"/>
<path d="M63.1262 105.061C61.8524 105.941 61.7054 107.799 62.8323 108.875C63.4692 109.56 65.5268 109.657 77.7258 109.657C93.0603 109.657 93.4032 109.609 93.4032 106.968C93.4032 104.474 92.3744 104.279 77.7258 104.279C66.3107 104.279 64.0571 104.376 63.1262 105.061Z" fill="white"/>
</svg>
