<svg width="29" height="18" viewBox="0 0 29 18" fill="none" xmlns="http://www.w3.org/2000/svg">
<path d="M28.5034 0H0.496599C0.364893 0 0.238581 0.0507085 0.145451 0.140971C0.0523201 0.231233 0 0.353656 0 0.481306V17.5187C0 17.6463 0.0523201 17.7688 0.145451 17.859C0.238581 17.9493 0.364893 18 0.496599 18H28.5034C28.6351 18 28.7614 17.9493 28.8545 17.859C28.9477 17.7688 29 17.6463 29 17.5187V0.481306C29 0.353656 28.9477 0.231233 28.8545 0.140971C28.7614 0.0507085 28.6351 0 28.5034 0ZM23.6187 10.4076C23.6963 10.7487 23.7766 11.1015 23.6722 11.2765C23.5601 11.4643 23.1975 11.5735 22.847 11.6792C22.5704 11.7625 22.2845 11.8487 22.0297 11.9916C21.7834 12.1297 21.5704 12.3232 21.3645 12.5103C21.081 12.768 20.8132 13.0112 20.5711 13.0112C20.329 13.0112 20.0612 12.7679 19.7778 12.5103C19.5718 12.3232 19.3588 12.1296 19.1126 11.9916C18.8577 11.8487 18.5718 11.7625 18.2952 11.6792C17.9447 11.5735 17.5822 11.4643 17.4701 11.2765C17.3656 11.1015 17.4459 10.7487 17.5236 10.4075C17.5874 10.1274 17.6532 9.83789 17.6532 9.54147C17.6532 9.24505 17.5874 8.95543 17.5236 8.67538C17.4459 8.33423 17.3656 7.98146 17.4701 7.80639C17.5822 7.61856 17.9447 7.50933 18.2952 7.4037C18.5718 7.3204 18.8577 7.23422 19.1126 7.0913C19.3588 6.9532 19.5718 6.75971 19.7778 6.57258C20.0612 6.31499 20.329 6.07164 20.5711 6.07164C20.8132 6.07164 21.081 6.31499 21.3645 6.57258C21.5704 6.75971 21.7834 6.9532 22.0297 7.0913C22.2845 7.23415 22.5704 7.32034 22.847 7.40364C23.1975 7.50927 23.5601 7.61849 23.6722 7.80633C23.7766 7.98133 23.6963 8.3341 23.6187 8.67525C23.5549 8.9553 23.489 9.24486 23.489 9.54134C23.489 9.83783 23.5549 10.1275 23.6187 10.4076ZM22.1832 5.99591C22.1375 5.95548 22.0911 5.91339 22.0438 5.87046C21.6705 5.53123 21.206 5.10909 20.5711 5.10909C19.9362 5.10909 19.4717 5.53123 19.0984 5.87046C18.9258 6.0273 18.7627 6.17547 18.6152 6.25819C18.4566 6.34708 18.2351 6.41388 18.0004 6.48454C17.4925 6.63759 16.9169 6.81099 16.6104 7.32438C16.3126 7.82334 16.4407 8.38621 16.5538 8.88279C16.6084 9.12299 16.66 9.34997 16.66 9.54147C16.66 9.73297 16.6084 9.95995 16.5538 10.2002C16.4557 10.6308 16.3468 11.1112 16.5137 11.5567L14.4998 13.5321L1.68526 0.962611H27.3142L22.1832 5.99591ZM8.48297 8.99997L0.993198 16.3465V1.65332L8.48297 8.99997ZM9.18106 9.68471L14.1465 14.5552C14.1926 14.6005 14.2476 14.6365 14.3083 14.661C14.3689 14.6856 14.434 14.6982 14.4997 14.6982C14.5654 14.6982 14.6305 14.6856 14.6911 14.661C14.7518 14.6365 14.8068 14.6005 14.8529 14.5552L17.171 12.2814C17.4319 12.4265 17.7259 12.5156 18.0004 12.5983C18.2351 12.6691 18.4567 12.7358 18.6152 12.8247C18.7627 12.9074 18.9257 13.0556 19.0984 13.2124C19.4717 13.5516 19.9362 13.9738 20.5711 13.9738C21.206 13.9738 21.6705 13.5516 22.0438 13.2124C22.2165 13.0555 22.3795 12.9074 22.5271 12.8246C22.6231 12.7707 22.7426 12.725 22.8739 12.6816L27.3143 17.0373H1.68513L9.18106 9.68471ZM23.9007 12.3193C24.151 12.1921 24.3762 12.0193 24.5319 11.7586C24.8297 11.2596 24.7016 10.6967 24.5885 10.2002C24.5339 9.95995 24.4822 9.73297 24.4822 9.54147C24.4822 9.34997 24.5339 9.12299 24.5885 8.88279C24.7016 8.38621 24.8297 7.8234 24.5318 7.32438C24.2253 6.81099 23.6497 6.63759 23.1418 6.48454L23.0955 6.47055L28.0068 1.6528V16.3469L23.9007 12.3193Z" fill="white"/>
<path d="M20.5711 7.09087C19.1769 7.09087 18.0427 8.19017 18.0427 9.54135C18.0427 10.8925 19.1769 11.9918 20.5711 11.9918C21.9653 11.9918 23.0996 10.8925 23.0996 9.54135C23.0996 8.19017 21.9653 7.09087 20.5711 7.09087ZM20.5711 11.0292C19.7247 11.0292 19.0359 10.3618 19.0359 9.54135C19.0359 8.72095 19.7246 8.05348 20.5711 8.05348C21.4177 8.05348 22.1064 8.72095 22.1064 9.54135C22.1064 10.3618 21.4176 11.0292 20.5711 11.0292Z" fill="white"/>
</svg>
