<svg width="27" height="27" viewBox="0 0 27 27" fill="none" xmlns="http://www.w3.org/2000/svg">
<path d="M26.5376 5H0.462351C0.339728 5 0.222127 5.05071 0.135419 5.14097C0.0487118 5.23123 0 5.35366 0 5.48131V22.5187C0 22.6463 0.0487118 22.7688 0.135419 22.859C0.222127 22.9493 0.339728 23 0.462351 23H26.5376C26.6603 23 26.7779 22.9493 26.8646 22.859C26.9513 22.7688 27 22.6463 27 22.5187V5.48131C27 5.35366 26.9513 5.23123 26.8646 5.14097C26.7779 5.05071 26.6603 5 26.5376 5ZM21.9898 15.4076C22.0621 15.7487 22.1369 16.1015 22.0397 16.2765C21.9352 16.4643 21.5977 16.5735 21.2713 16.6792C21.0138 16.7625 20.7477 16.8487 20.5104 16.9916C20.2811 17.1297 20.0828 17.3232 19.8911 17.5103C19.6271 17.768 19.3778 18.0112 19.1524 18.0112C18.927 18.0112 18.6777 17.7679 18.4138 17.5103C18.2221 17.3232 18.0237 17.1296 17.7945 16.9916C17.5572 16.8487 17.291 16.7625 17.0335 16.6792C16.7071 16.5735 16.3696 16.4643 16.2653 16.2765C16.168 16.1015 16.2428 15.7487 16.3151 15.4075C16.3744 15.1274 16.4358 14.8379 16.4358 14.5415C16.4358 14.245 16.3744 13.9554 16.3151 13.6754C16.2428 13.3342 16.168 12.9815 16.2653 12.8064C16.3696 12.6186 16.7071 12.5093 17.0335 12.4037C17.291 12.3204 17.5572 12.2342 17.7945 12.0913C18.0237 11.9532 18.2221 11.7597 18.4138 11.5726C18.6777 11.315 18.927 11.0716 19.1524 11.0716C19.3778 11.0716 19.6272 11.315 19.8911 11.5726C20.0828 11.7597 20.2811 11.9532 20.5104 12.0913C20.7477 12.2342 21.0138 12.3203 21.2713 12.4036C21.5977 12.5093 21.9352 12.6185 22.0396 12.8063C22.1369 12.9813 22.0621 13.3341 21.9898 13.6752C21.9304 13.9553 21.8691 14.2449 21.8691 14.5413C21.8691 14.8378 21.9304 15.1275 21.9898 15.4076ZM20.6533 10.9959C20.6108 10.9555 20.5676 10.9134 20.5236 10.8705C20.176 10.5312 19.7436 10.1091 19.1524 10.1091C18.5613 10.1091 18.1288 10.5312 17.7813 10.8705C17.6206 11.0273 17.4687 11.1755 17.3314 11.2582C17.1837 11.3471 16.9775 11.4139 16.759 11.4845C16.2861 11.6376 15.7502 11.811 15.4648 12.3244C15.1875 12.8233 15.3068 13.3862 15.4121 13.8828C15.463 14.123 15.5111 14.35 15.5111 14.5415C15.5111 14.733 15.463 14.9599 15.4121 15.2002C15.3208 15.6308 15.2194 16.1112 15.3748 16.5567L13.4998 18.5321L1.56903 5.96261H25.4305L20.6533 10.9959ZM7.89794 14L0.924702 21.3465V6.65332L7.89794 14ZM8.54788 14.6847L13.1708 19.5552C13.2138 19.6005 13.2651 19.6365 13.3215 19.661C13.378 19.6856 13.4385 19.6982 13.4997 19.6982C13.5609 19.6982 13.6215 19.6856 13.6779 19.661C13.7344 19.6365 13.7856 19.6005 13.8286 19.5552L15.9868 17.2814C16.2297 17.4265 16.5034 17.5156 16.759 17.5983C16.9775 17.6691 17.1838 17.7358 17.3314 17.8247C17.4687 17.9074 17.6205 18.0556 17.7813 18.2124C18.1288 18.5516 18.5613 18.9738 19.1524 18.9738C19.7435 18.9738 20.176 18.5516 20.5236 18.2124C20.6843 18.0555 20.8361 17.9074 20.9735 17.8246C21.0629 17.7707 21.1741 17.725 21.2964 17.6816L25.4306 22.0373H1.56891L8.54788 14.6847ZM22.2523 17.3193C22.4854 17.1921 22.6951 17.0193 22.84 16.7586C23.1173 16.2596 22.998 15.6967 22.8927 15.2002C22.8419 14.9599 22.7938 14.733 22.7938 14.5415C22.7938 14.35 22.8419 14.123 22.8927 13.8828C22.998 13.3862 23.1173 12.8234 22.84 12.3244C22.5546 11.811 22.0187 11.6376 21.5458 11.4845L21.5027 11.4705L26.0753 6.6528V21.3469L22.2523 17.3193Z" fill="#0094FF"/>
<path d="M19.1524 12.0909C17.8544 12.0909 16.7984 13.1902 16.7984 14.5414C16.7984 15.8925 17.8544 16.9918 19.1524 16.9918C20.4505 16.9918 21.5065 15.8925 21.5065 14.5414C21.5065 13.1902 20.4504 12.0909 19.1524 12.0909ZM19.1524 16.0292C18.3643 16.0292 17.7231 15.3618 17.7231 14.5414C17.7231 13.721 18.3643 13.0535 19.1524 13.0535C19.9406 13.0535 20.5818 13.721 20.5818 14.5414C20.5818 15.3618 19.9405 16.0292 19.1524 16.0292Z" fill="#0094FF"/>
</svg>
