<svg width="27" height="27" viewBox="0 0 27 27" fill="none" xmlns="http://www.w3.org/2000/svg">
<path d="M13.5 0C8.81319 0 5 4.0375 5 9.00002C5 10.4898 5.35177 11.9669 6.0205 13.277L13.0352 26.71C13.1286 26.889 13.3065 27 13.5 27C13.6935 27 13.8714 26.889 13.9648 26.71L20.9821 13.2726C21.6482 11.9669 22 10.4897 22 8.99996C22 4.0375 18.1868 0 13.5 0ZM20.0498 12.7326L13.5 25.2752L6.95279 12.7376C6.37017 11.5961 6.06253 10.3036 6.06253 9.00002C6.06253 4.65766 9.39894 1.12504 13.5 1.12504C17.6011 1.12504 20.9375 4.65771 20.9375 9.00002C20.9375 10.3035 20.6298 11.5961 20.0498 12.7326Z" fill="#0094FF"/>
<path d="M13.5 4.49997C11.1566 4.49997 9.25004 6.51869 9.25004 8.99995C9.25004 11.4813 11.1566 13.5 13.5 13.5C15.8434 13.5 17.75 11.4813 17.75 9C17.75 6.51874 15.8434 4.49997 13.5 4.49997ZM13.5 12.375C11.7423 12.375 10.3125 10.8611 10.3125 9C10.3125 7.1389 11.7423 5.625 13.5 5.625C15.2577 5.625 16.6875 7.1389 16.6875 9C16.6875 10.861 15.2577 12.375 13.5 12.375Z" fill="#0094FF"/>
</svg>
