<svg width="18" height="27" viewBox="0 0 18 27" fill="none" xmlns="http://www.w3.org/2000/svg">
<path d="M9 0C4.03749 0 0 4.0375 0 9.00002C0 10.4898 0.372462 11.9669 1.08053 13.277L8.50783 26.71C8.60671 26.889 8.79513 27 9 27C9.20487 27 9.39329 26.889 9.49217 26.71L16.9222 13.2726C17.6275 11.9669 18 10.4897 18 8.99996C18 4.0375 13.9625 0 9 0ZM15.9351 12.7326L9 25.2752L2.06766 12.7376C1.45077 11.5961 1.12503 10.3036 1.12503 9.00002C1.12503 4.65766 4.6577 1.12504 9 1.12504C13.3423 1.12504 16.875 4.65771 16.875 9.00002C16.875 10.3035 16.5492 11.5961 15.9351 12.7326Z" fill="white"/>
<path d="M9.00001 4.49997C6.51876 4.49997 4.50004 6.51869 4.50004 8.99995C4.50004 11.4813 6.51876 13.5 9.00001 13.5C11.4813 13.5 13.5 11.4813 13.5 9C13.5 6.51874 11.4813 4.49997 9.00001 4.49997ZM9.00001 12.375C7.13891 12.375 5.62502 10.8611 5.62502 9C5.62502 7.1389 7.13891 5.625 9.00001 5.625C10.8611 5.625 12.375 7.1389 12.375 9C12.375 10.861 10.8611 12.375 9.00001 12.375Z" fill="white"/>
</svg>
