<svg width="54" height="53" viewBox="0 0 54 53" fill="none" xmlns="http://www.w3.org/2000/svg">
<circle cx="26.5" cy="26.5" r="26.5" fill="white"/>
<path d="M20.968 20.512C19.3253 20.512 18.0667 21.0133 17.192 22.016C16.3173 23.0187 15.88 24.4373 15.88 26.272C15.88 28.128 16.36 29.5573 17.32 30.56C18.3013 31.5627 19.6133 32.064 21.256 32.064C22.1307 32.064 22.8667 31.9467 23.464 31.712C24.0827 31.4773 24.6693 31.2107 25.224 30.912C25.5867 31.2107 25.864 31.5733 26.056 32C26.2693 32.4053 26.376 32.8853 26.376 33.44C26.376 34.3147 25.8853 35.0613 24.904 35.68C23.944 36.2773 22.472 36.576 20.488 36.576C19.0587 36.576 17.7147 36.3733 16.456 35.968C15.1973 35.5627 14.0987 34.944 13.16 34.112C12.2213 33.2587 11.4747 32.192 10.92 30.912C10.3867 29.6107 10.12 28.064 10.12 26.272C10.12 24.608 10.376 23.1467 10.888 21.888C11.4213 20.608 12.136 19.5307 13.032 18.656C13.9493 17.7813 15.016 17.12 16.232 16.672C17.448 16.224 18.7493 16 20.136 16C22.0987 16 23.6133 16.32 24.68 16.96C25.768 17.6 26.312 18.4213 26.312 19.424C26.312 19.9787 26.1733 20.4587 25.896 20.864C25.6187 21.2693 25.2987 21.5893 24.936 21.824C24.3813 21.4613 23.784 21.152 23.144 20.896C22.5253 20.64 21.8 20.512 20.968 20.512ZM37.307 24.256C36.7737 24.256 36.2617 24.3413 35.771 24.512C35.3017 24.6827 34.8857 24.9387 34.523 25.28C34.1817 25.6 33.9043 26.0053 33.691 26.496C33.4777 26.9867 33.371 27.5627 33.371 28.224C33.371 29.5467 33.7443 30.5387 34.491 31.2C35.259 31.8613 36.187 32.192 37.275 32.192C37.915 32.192 38.4697 32.1173 38.939 31.968C39.4083 31.8187 39.8243 31.6587 40.187 31.488C40.6137 31.7867 40.9337 32.1173 41.147 32.48C41.3603 32.8213 41.467 33.2373 41.467 33.728C41.467 34.6027 41.051 35.2853 40.219 35.776C39.387 36.2453 38.235 36.48 36.763 36.48C35.419 36.48 34.203 36.288 33.115 35.904C32.027 35.4987 31.0883 34.944 30.299 34.24C29.531 33.5147 28.9337 32.6507 28.507 31.648C28.0803 30.6453 27.867 29.536 27.867 28.32C27.867 26.912 28.091 25.6853 28.539 24.64C29.0083 23.5733 29.6377 22.6987 30.427 22.016C31.2163 21.3333 32.123 20.8213 33.147 20.48C34.1923 20.1387 35.291 19.968 36.443 19.968C37.979 19.968 39.163 20.2453 39.995 20.8C40.827 21.3547 41.243 22.0693 41.243 22.944C41.243 23.3493 41.147 23.7333 40.955 24.096C40.763 24.4373 40.539 24.736 40.283 24.992C39.9203 24.8213 39.483 24.6613 38.971 24.512C38.459 24.3413 37.9043 24.256 37.307 24.256Z" fill="#2587CD"/>
</svg>
