<svg width="27" height="27" viewBox="0 0 27 27" fill="none" xmlns="http://www.w3.org/2000/svg">
<path d="M26.9636 10.0037L25.3194 6.63401C25.2913 6.57641 25.2479 6.52516 25.1927 6.48426C25.1375 6.44336 25.072 6.41394 25.0013 6.39829L23.0249 5.96074C17.2387 4.67973 9.76111 4.67978 3.97511 5.96074L1.99871 6.39829C1.92797 6.41394 1.86245 6.44336 1.80726 6.48426C1.75208 6.52516 1.70874 6.57641 1.68064 6.63401L0.0364341 10.0037C-0.00886149 10.0965 -0.0120334 10.2003 0.0275376 10.295L0.685183 11.8675C0.723369 11.9589 0.798789 12.0355 0.897657 12.0833C0.996525 12.1311 1.11224 12.1469 1.22364 12.1278L7.47168 11.0608C7.56567 11.0447 7.65173 11.0047 7.71849 10.9459C7.78524 10.8872 7.82954 10.8125 7.84553 10.7318L8.38657 7.99584C11.3646 7.35684 15.6354 7.35684 18.6133 7.99584L19.1544 10.7319C19.1704 10.8126 19.2147 10.8873 19.2814 10.946C19.3482 11.0047 19.4343 11.0448 19.5282 11.0608L25.7762 12.1279C25.8876 12.1469 26.0033 12.131 26.1022 12.0832C26.2011 12.0355 26.2765 11.9589 26.3147 11.8676L26.9725 10.2951C27.012 10.2004 27.0089 10.0965 26.9636 10.0037ZM1.43905 11.2669L1.10149 10.4598L7.15318 9.37966L6.96667 10.3229L1.43905 11.2669ZM7.84496 7.28195C7.75813 7.30239 7.67994 7.34358 7.61959 7.40066C7.55923 7.45775 7.51921 7.52836 7.50424 7.6042L7.3224 8.5238L1.25544 9.60665L2.46385 7.13023L4.21261 6.74306C9.85443 5.49405 17.1454 5.49399 22.7875 6.74306L24.5363 7.13023L25.7447 9.60665L19.6777 8.5238L19.4959 7.6042C19.4809 7.52837 19.4409 7.45776 19.3805 7.40068C19.3202 7.3436 19.242 7.30241 19.1552 7.28195C15.9311 6.52221 11.0689 6.52221 7.84496 7.28195ZM25.5609 11.2669L20.0335 10.3229L19.8469 9.37966L25.8986 10.4598L25.5609 11.2669Z" fill="#0094FF"/>
<path d="M22.4708 12.3792C22.4512 12.3036 22.4065 12.2344 22.3421 12.1799C22.2778 12.1254 22.1964 12.0878 22.1077 12.0716L18.8849 11.4834L18.4791 9.2266C18.4619 9.13117 18.4053 9.04415 18.3195 8.98127C18.2338 8.91839 18.1244 8.88383 18.0114 8.88382H16.7495V8.35474C16.7495 8.13157 16.5376 7.95065 16.2762 7.95065C16.0148 7.95065 15.803 8.13157 15.803 8.35474V8.88382H11.197V8.35474C11.197 8.13157 10.9852 7.95065 10.7238 7.95065C10.4624 7.95065 10.2506 8.13157 10.2506 8.35474V8.88382H8.98869C8.87563 8.88383 8.76631 8.91839 8.68052 8.98127C8.59472 9.04415 8.53812 9.13117 8.52097 9.2266L8.11514 11.4834L4.89234 12.0716C4.80366 12.0878 4.7223 12.1254 4.65793 12.1799C4.59356 12.2344 4.54888 12.3036 4.52922 12.3792L2.34088 20.7994C2.33342 20.8281 2.32966 20.8575 2.32964 20.8869V22.5959C2.32964 22.7031 2.3795 22.8059 2.46825 22.8816C2.55699 22.9574 2.67736 23 2.80286 23H24.1972C24.3227 23 24.4431 22.9574 24.5318 22.8816C24.6206 22.8059 24.6704 22.7031 24.6704 22.5959V20.8869C24.6704 20.8575 24.6666 20.8282 24.6592 20.7994L22.4708 12.3792ZM5.38739 12.8076L8.63227 12.2154C8.72615 12.1982 8.81171 12.1571 8.87759 12.0975C8.94347 12.0379 8.98655 11.9625 9.00112 11.8815L9.39484 9.692H17.6053L17.9989 11.8815C18.0135 11.9625 18.0566 12.0379 18.1225 12.0975C18.1884 12.1571 18.2739 12.1982 18.3678 12.2154L21.6127 12.8076L23.6075 20.4828H3.39262L5.38739 12.8076ZM7.9627 21.291L7.35313 22.1918H6.63378L7.24334 21.291H7.9627ZM9.05583 21.291H19.3537L18.7441 22.1918H8.44626L9.05583 21.291ZM3.27608 21.291H6.15021L5.54064 22.1918H3.27608V21.291ZM19.8372 22.1918L20.4468 21.291H23.724V22.1918H19.8372Z" fill="#0094FF"/>
<path d="M13.5 19.7153C16.3007 19.7153 18.5792 17.7697 18.5792 15.3781C18.5792 12.9865 16.3007 11.0409 13.5 11.0409C10.6993 11.0409 8.42083 12.9865 8.42083 15.3781C8.42083 17.7697 10.6993 19.7153 13.5 19.7153ZM13.5 11.8491C15.7789 11.8491 17.6328 13.4322 17.6328 15.3781C17.6328 17.324 15.7789 18.9071 13.5 18.9071C11.2212 18.9071 9.36727 17.324 9.36727 15.3781C9.36727 13.4322 11.2212 11.8491 13.5 11.8491Z" fill="#0094FF"/>
<path d="M13.5 16.9164C14.4934 16.9164 15.3017 16.2263 15.3017 15.3779C15.3017 14.5296 14.4934 13.8395 13.5 13.8395C12.5066 13.8395 11.6983 14.5296 11.6983 15.3779C11.6983 16.2263 12.5066 16.9164 13.5 16.9164ZM13.5 14.6477C13.9716 14.6477 14.3552 14.9753 14.3552 15.3779C14.3552 15.7806 13.9716 16.1082 13.5 16.1082C13.0285 16.1082 12.6448 15.7806 12.6448 15.3779C12.6448 14.9753 13.0285 14.6477 13.5 14.6477Z" fill="#0094FF"/>
</svg>
