<svg width="28" height="17" viewBox="0 0 28 17" fill="none" xmlns="http://www.w3.org/2000/svg">
<path d="M27.9623 4.7257L26.2571 1.54323C26.228 1.48883 26.183 1.44043 26.1258 1.4018C26.0686 1.36318 26.0006 1.33539 25.9273 1.32061L23.8777 0.907367C17.8772 -0.302481 10.1226 -0.30243 4.12234 0.907367L2.07273 1.32061C1.99938 1.33539 1.93143 1.36318 1.8742 1.4018C1.81697 1.44043 1.77203 1.48883 1.74289 1.54323L0.0377835 4.7257C-0.0091897 4.81332 -0.0124791 4.91142 0.0285575 5.00083L0.71056 6.48597C0.750161 6.57227 0.828374 6.6446 0.930904 6.68975C1.03343 6.7349 1.15343 6.74984 1.26896 6.73185L7.74841 5.72407C7.84588 5.7089 7.93513 5.67108 8.00436 5.61561C8.07358 5.56014 8.11952 5.48963 8.1361 5.41341L8.69718 2.82941C11.7855 2.22591 16.2145 2.22591 19.3027 2.82941L19.8638 5.41346C19.8804 5.48969 19.9263 5.5602 19.9956 5.61567C20.0648 5.67115 20.154 5.70896 20.2515 5.72412L26.7309 6.7319C26.8464 6.74984 26.9664 6.73487 27.0689 6.68973C27.1715 6.6446 27.2497 6.57229 27.2894 6.48602L27.9714 5.00089C28.0125 4.91146 28.0092 4.81335 27.9623 4.7257ZM1.49235 5.91875L1.14228 5.15644L7.41811 4.13634L7.22469 5.02719L1.49235 5.91875ZM8.13551 2.15518C8.04547 2.17448 7.96439 2.21338 7.90179 2.26729C7.8392 2.32121 7.7977 2.38789 7.78218 2.45952L7.5936 3.32803L1.30194 4.35072L2.5551 2.01188L4.36863 1.64622C10.2194 0.466599 17.7805 0.466548 23.6315 1.64622L25.445 2.01188L26.6982 4.35072L20.4065 3.32803L20.218 2.45952C20.2024 2.3879 20.1609 2.32122 20.0983 2.26731C20.0357 2.2134 19.9546 2.1745 19.8646 2.15518C16.5211 1.43764 11.4789 1.43764 8.13551 2.15518ZM26.5076 5.91875L20.7754 5.02719L20.582 4.13634L26.8578 5.15644L26.5076 5.91875Z" fill="white"/>
<path d="M23.3031 6.96924C23.2827 6.89785 23.2364 6.83252 23.1696 6.78102C23.1029 6.72952 23.0185 6.69402 22.9265 6.67874L19.5843 6.12317L19.1635 3.99179C19.1457 3.90166 19.087 3.81947 18.9981 3.76009C18.9091 3.70071 18.7957 3.66806 18.6785 3.66806H17.3698V3.16836C17.3698 2.9576 17.1502 2.78672 16.8791 2.78672C16.608 2.78672 16.3883 2.9576 16.3883 3.16836V3.66806H11.6117V3.16836C11.6117 2.9576 11.3921 2.78672 11.121 2.78672C10.8499 2.78672 10.6303 2.9576 10.6303 3.16836V3.66806H9.32161C9.20436 3.66806 9.09099 3.70071 9.00202 3.76009C8.91304 3.81947 8.85435 3.90166 8.83656 3.99179L8.4157 6.12317L5.07353 6.67874C4.98158 6.69402 4.8972 6.72952 4.83044 6.78102C4.76369 6.83252 4.71736 6.89785 4.69697 6.96924L2.42757 14.9216C2.41985 14.9488 2.41594 14.9765 2.41593 15.0043V16.6184C2.41593 16.7196 2.46763 16.8166 2.55966 16.8882C2.6517 16.9598 2.77652 17 2.90667 17H25.0934C25.2235 17 25.3484 16.9598 25.4404 16.8882C25.5324 16.8166 25.5841 16.7196 25.5841 16.6184V15.0043C25.5841 14.9765 25.5802 14.9488 25.5725 14.9216L23.3031 6.96924ZM5.58692 7.37388L8.95198 6.8145C9.04934 6.79832 9.13806 6.7595 9.20638 6.70319C9.2747 6.64688 9.31939 6.57574 9.3345 6.49921L9.7428 4.43134H18.2573L18.6656 6.49921C18.6807 6.57574 18.7254 6.64688 18.7937 6.70319C18.862 6.7595 18.9507 6.79832 19.0481 6.8145L22.4132 7.37388L24.4819 14.6227H3.51827L5.58692 7.37388ZM8.25761 15.386L7.62547 16.2367H6.87947L7.51161 15.386H8.25761ZM9.39123 15.386H20.0705L19.4383 16.2367H8.75909L9.39123 15.386ZM3.39741 15.386H6.378L5.74585 16.2367H3.39741V15.386ZM20.5719 16.2367L21.2041 15.386H24.6027V16.2367H20.5719Z" fill="white"/>
<path d="M14 13.8978C16.9045 13.8978 19.2674 12.0602 19.2674 9.80154C19.2674 7.54285 16.9045 5.70528 14 5.70528C11.0956 5.70528 8.73271 7.54285 8.73271 9.80154C8.73271 12.0602 11.0956 13.8978 14 13.8978ZM14 6.46856C16.3633 6.46856 18.2859 7.96372 18.2859 9.80154C18.2859 11.6394 16.3633 13.1345 14 13.1345C11.6368 13.1345 9.7142 11.6394 9.7142 9.80154C9.7142 7.96372 11.6368 6.46856 14 6.46856Z" fill="white"/>
<path d="M14 11.2544C15.0302 11.2544 15.8684 10.6026 15.8684 9.80139C15.8684 9.0002 15.0302 8.34841 14 8.34841C12.9698 8.34841 12.1316 9.0002 12.1316 9.80139C12.1316 10.6026 12.9698 11.2544 14 11.2544ZM14 9.11169C14.4891 9.11169 14.8869 9.42107 14.8869 9.80139C14.8869 10.1817 14.4891 10.4911 14 10.4911C13.511 10.4911 13.1131 10.1817 13.1131 9.80139C13.1131 9.42112 13.511 9.11169 14 9.11169Z" fill="white"/>
</svg>
