<svg width="31" height="31" viewBox="0 0 31 31" fill="none" xmlns="http://www.w3.org/2000/svg">
<path d="M15.5 0C6.93335 0.0313859 0 6.95838 0 15.4988C0 22.0074 4.02725 27.5801 9.73329 29.8759L9.83712 29.9131C9.68196 28.6891 9.57229 26.8129 9.88379 25.4645L11.7037 17.761C11.7037 17.761 11.2371 16.831 11.2371 15.4675C11.2371 13.3134 12.4971 11.7163 14.0685 11.7163C15.3903 11.7163 16.0437 12.7078 16.0437 13.8865C16.0437 15.2199 15.1885 17.203 14.737 19.0478C14.3637 20.5973 15.5152 21.8527 17.0551 21.8527C19.8236 21.8527 21.9399 18.9548 21.9399 14.77C21.9399 11.0502 19.2648 8.47769 15.4382 8.47769C15.3495 8.47304 15.2468 8.47072 15.143 8.47072C11.4226 8.47072 8.40799 11.4756 8.40799 15.1815C8.40799 15.1838 8.40799 15.1861 8.40799 15.1885C8.40799 16.5218 8.92131 17.9469 9.55946 18.7223C9.68429 18.8769 9.69946 19.0164 9.65279 19.1722L9.21764 20.924C9.1558 21.2029 8.98431 21.2808 8.70431 21.1413C6.74436 20.2265 5.53105 17.4215 5.53105 15.128C5.53105 10.2458 9.10914 5.76687 15.829 5.76687C21.2107 5.76687 25.427 9.57968 25.427 14.7095C25.427 20.0568 22.0355 24.3497 17.3386 24.3497C15.7835 24.3497 14.2902 23.5278 13.792 22.5676L12.8121 26.241C12.3092 27.7951 11.6547 29.1447 10.8428 30.3827L10.8824 30.3176C12.2474 30.7501 13.8177 31 15.4452 31C24.0363 31 31 24.0602 31 15.5012C31 6.9607 24.0678 0.0337107 15.5047 0.00232472H15.5012L15.5 0Z" fill="white"/>
</svg>
