<svg width="31" height="31" viewBox="0 0 31 31" fill="none" xmlns="http://www.w3.org/2000/svg">
<path d="M17.0915 0C19.8825 0 20.4721 0.0314023 21.8978 0.0930441C23.541 0.170969 24.6737 0.433819 25.6506 0.822278C26.6739 1.20957 27.5426 1.75272 28.3951 2.60524C29.2638 3.45775 29.7906 4.32656 30.1941 5.35004C30.5813 6.32701 30.8302 7.45866 30.907 9.11833C30.9849 10.5919 31 11.1653 31 14.2672V16.748C31 19.8498 30.9849 20.4232 30.907 21.8968C30.8802 23.2517 30.6209 24.5369 30.1673 25.7279L30.1929 25.65C29.7894 26.6734 29.2626 27.5422 28.4102 28.3948C27.5415 29.2636 26.6739 29.7904 25.6506 30.194C24.6737 30.5813 23.5422 30.8302 21.8978 30.907C20.4244 30.9849 19.836 31 16.7344 31H14.269C11.1675 31 10.5942 30.9849 9.10568 30.907C7.75087 30.8802 6.46584 30.6208 5.27501 30.1673L5.35293 30.1928C4.27955 29.7823 3.36433 29.1763 2.6096 28.4099L2.60843 28.4087C1.83393 27.6504 1.22223 26.7293 0.826837 25.7L0.809393 25.6476C0.382601 24.5358 0.12327 23.2494 0.0965224 21.9061V21.8945C0.0348876 20.6826 0 19.2625 0 17.8354C0 17.5726 0.00116267 17.3097 0.00348851 17.048V17.0876V13.9089C0.00348851 11.1176 0.0348876 10.528 0.0965224 9.10205C0.174438 7.45866 0.437258 6.32584 0.809393 5.34888C1.21293 4.32539 1.73973 3.45659 2.60843 2.60407C3.35852 1.82832 4.27606 1.22004 5.30292 0.837398L5.35293 0.821115C6.46352 0.389622 7.74855 0.124447 9.09172 0.0930441H9.10568C10.5326 0.0314023 11.121 0 13.912 0H17.0915ZM17.1229 2.79133H13.8818C11.1989 2.79133 10.6256 2.82273 9.23011 2.88437C7.72645 2.94601 6.90427 3.1949 6.36118 3.41123C5.63203 3.69037 5.12034 4.03114 4.57842 4.57429C4.0365 5.11743 3.6946 5.62917 3.4155 6.35725C3.21431 6.90039 2.95033 7.72151 2.8887 9.24161C2.82706 10.6373 2.79566 11.1955 2.79566 13.8938V17.119C2.79566 19.8173 2.82706 20.3755 2.8887 21.7712C2.95033 23.275 3.1992 24.0973 3.4155 24.6404C3.6946 25.3697 4.03534 25.8814 4.57842 26.4234C5.12151 26.9654 5.63319 27.3073 6.36118 27.5864C6.90427 27.8039 7.72529 28.0517 9.24523 28.1133C10.7489 28.1912 11.292 28.2063 14.6412 28.2063H16.3623C19.7266 28.2063 20.2546 28.1912 21.7734 28.1133C23.277 28.0517 24.0992 27.8028 24.6423 27.5864C25.3715 27.3073 25.8831 26.9665 26.4251 26.4234C26.967 25.8802 27.3089 25.3685 27.588 24.6404C27.8055 24.0973 28.0532 23.2762 28.1148 21.7712C28.1927 20.2511 28.2078 19.7242 28.2078 16.3595V14.6533C28.2078 11.2886 28.1927 10.7454 28.1148 9.22533C28.0532 7.72151 27.8043 6.89923 27.588 6.35608C27.3252 5.65709 26.9286 5.06044 26.4262 4.57429L26.4251 4.57312C25.9366 4.06952 25.3412 3.67292 24.6749 3.42054L24.6423 3.41007C23.791 3.08907 22.8072 2.89716 21.7792 2.88321H21.7734C20.5779 2.82273 19.1789 2.78784 17.7706 2.78784C17.5427 2.78784 17.3147 2.789 17.0868 2.79016H17.1217L17.1229 2.79133ZM15.5099 7.53658C19.9069 7.53658 23.4724 11.1013 23.4724 15.5C23.4724 19.8987 19.9081 23.4634 15.5099 23.4634C11.1129 23.4634 7.54736 19.8987 7.54736 15.5C7.54736 11.1013 11.1117 7.53658 15.5099 7.53658ZM15.5099 10.3279C12.6537 10.3279 10.3384 12.6435 10.3384 15.5C10.3384 18.3565 12.6537 20.6721 15.5099 20.6721C18.366 20.6721 20.6814 18.3565 20.6814 15.5C20.6814 12.6435 18.366 10.3279 15.5099 10.3279ZM23.7748 5.36516C24.8028 5.36516 25.6354 6.19791 25.6354 7.22605C25.6354 8.25418 24.8028 9.08693 23.7748 9.08693C22.7467 9.08693 21.9141 8.25418 21.9141 7.22605C21.9141 6.19791 22.7467 5.36516 23.7748 5.36516Z" fill="white"/>
</svg>
